<svg version="1.1" xmlns="http://www.w3.org/2000/svg" width="15" height="20">
    <defs/>
    <g>
        <path fill="rgb(88,21,155)" stroke="none" paint-order="stroke fill markers" fill-rule="evenodd"
              d=" M 4.265382766723633 7.353534698486328 C 4.265382766723633 5.4755706787109375 5.714568376541138 3.953230381011963 7.502075910568237 3.953230381011963 C 9.289583444595337 3.953230381011963 10.738769054412842 5.4755706787109375 10.738769054412842 7.353534698486328 C 10.738769054412842 9.231498718261719 9.289583444595337 10.754080772399902 7.502075910568237 10.754080772399902 C 5.714568376541138 10.754080772399902 4.265382766723633 9.231498718261719 4.265382766723633 7.353534698486328 Z M 1.9996790885925293 7.778542518615723 C 1.9996790885925293 9.201037406921387 3.641399621963501 12.199300765991211 3.641399621963501 12.199300765991211 C 3.641399621963501 12.199300765991211 7.502075910568237 18.99990940093994 7.502075910568237 18.99990940093994 C 7.502075910568237 18.99990940093994 11.140838146209717 12.199300765991211 11.140838146209717 12.199300765991211 C 11.140838146209717 12.199300765991211 13.004380345344543 9.179762840270996 13.004380345344543 7.778542518615723 C 13.004380345344543 4.585906982421875 10.540875673294067 1.9979043006896973 7.502075910568237 1.9979043006896973 C 4.4630913734436035 1.9979043006896973 1.9996790885925293 4.585906982421875 1.9996790885925293 7.778542518615723 Z"/>
    </g>
</svg>